<?xml version="1.0" encoding="utf-8"?>
<!-- Generator: Adobe Illustrator 27.6.1, SVG Export Plug-In . SVG Version: 6.00 Build 0)  -->
<svg version="1.1" xmlns="http://www.w3.org/2000/svg" xmlns:xlink="http://www.w3.org/1999/xlink" x="0px" y="0px"
	 viewBox="0 0 650 650" style="enable-background:new 0 0 650 650;" xml:space="preserve">
<style type="text/css">
	.st1{fill-rule:evenodd;clip-rule:evenodd;fill:#C3D0E8;}
	.st2{fill-rule:evenodd;clip-rule:evenodd;fill:#69A7D6;}
	.st3{fill-rule:evenodd;clip-rule:evenodd;fill:#FFFFFF;}
	.st4{fill-rule:evenodd;clip-rule:evenodd;fill:#CED2DE;}
	.st5{fill:#FFFFFF;}
</style>
<g id="Layer_1">
	<path class="st1" d="M620.2,378.3v26l-590.5,2.6l0.7-27.4c9.8-5,11.6-6.3,18.5-14.9c20.6,16.4,41.7,5.4,52.6-9.4
		c22,29.3,73.4,45.9,92.1,17.8c20.7,0.8,28.3-6.3,36-19.5c25.7,16.3,59,27.7,76.6,21c46,32.6,84.8,30.2,119.6,8
		c8.3,6.7,16.7,0.1,26.2-3c39,25.4,105.3,4.3,125.1-15.7C594.4,379.7,605.5,384.3,620.2,378.3L620.2,378.3z"/>
	<path class="st2" d="M556.2,351.9L365,150.6l56.8,192.3c0.8,2.5,2.3,4.1,4.2,4.2L556.2,351.9L556.2,351.9z M360.7,177.6
		c-0.6-2.5-3.3-2.8-4-0.9l-61,159c-1,2.5,0.5,4.4,4,4.6l108,4C392,288.8,376.4,233.2,360.7,177.6z"/>
	<path class="st3" d="M628.6,229.9l1,4.6c-15,11.4-25.4,31.5-31.8,52.4l-33.4-34.2l6.3-0.1c7.1,4,14.7,8,21.8,12
		C602.9,248.3,614.5,237.7,628.6,229.9z M295.5,349.9c43.8,42.7,78.1,55.5,129.4,22.7c9.5,4.2,18.3,0.2,24.8-4.2
		c39.2,22.2,84.8,14.8,98.8-5.5L295.5,349.9z"/>
	<path class="st4" d="M88.2,356.4c-1.5-8.7-2.3-17.6-2.3-26.7c0-87,70.5-157.5,157.5-157.5c33.5,0,64.6,10.5,90.1,28.3l-54.4,148.9
		l16.9,16.8c-20.3,1.7-46.4-9.6-70.8-32.5c-5.6,21.2-15.5,30.5-31.9,27.5c-30.8,33.2-65.2,8.6-90.7-18.7
		C98.5,347.6,94.4,354.1,88.2,356.4L88.2,356.4z"/>
</g>
<g id="Layer_3">
	<g>
		<path class="st5" d="M101.8,445.1l-8.4,15.1l-1.4-0.8c0-0.3,0.1-0.6,0.1-0.8c0-1.1-1-2.2-3-3.4c-6.1-3.9-13.3-5.8-21.6-5.8
			c-3.7,0-6.9,0.4-9.7,1.2c-2,0.6-3.7,1.6-4.9,2.8c-1.3,1.3-1.9,2.6-1.9,4.1c0,2.4,1.6,4.1,4.8,4.9c1.7,0.4,5.2,0.9,10.7,1.4
			l8.1,0.8c4.8,0.5,8.7,1.1,11.7,1.9c3,0.8,5.6,2,7.9,3.4c2.3,1.5,4.2,3.6,5.6,6.1c1.4,2.5,2,5.2,2,8c0,4.5-1.6,8.5-4.8,12
			c-2.9,3.2-7.4,5.6-13.5,7.1c-4.6,1.2-9.4,1.7-14.6,1.7c-9.3,0-18.6-2-27.7-6.1c-1.9-0.8-3.1-1.2-3.5-1.2c-0.4,0-1.2,0.3-2.1,1
			L34,498l7.7-15.7l1.5,0.7c0,0.3,0,0.5,0,0.6c0,1.4,0.7,2.7,2.2,3.9c2.2,1.8,5.7,3.4,10.4,4.7c4.7,1.3,9.1,2,13.3,2
			c4.6,0,8.5-0.7,11.7-2.1c1.8-0.8,3.2-1.8,4.3-3.1c1.1-1.3,1.6-2.7,1.6-4.1c0-2.1-1.3-3.6-3.8-4.6c-1.8-0.6-5.3-1.2-10.7-1.7
			l-8-0.8c-5.3-0.5-9.1-1-11.3-1.4c-2.2-0.5-4.4-1.2-6.6-2.2c-3.1-1.4-5.6-3.5-7.4-6.4c-1.6-2.5-2.4-5.5-2.4-8.8
			c0-5.4,2.1-9.9,6.2-13.5c5.4-4.7,13.4-7,24.2-7c4.5,0,8.7,0.4,12.6,1.3c3.9,0.8,8.8,2.4,14.6,4.6c2,0.7,3.2,1.1,3.7,1.1
			c0.7,0,1.6-0.4,2.5-1.1L101.8,445.1z"/>
		<path class="st5" d="M128.3,481.5v12.8H165c1.1,0,1.9-0.2,2.5-0.6s1-1.2,1.4-2.4h1.4v15.6h-1.4c-0.3-1.1-0.8-1.9-1.3-2.3
			c-0.6-0.5-1.4-0.7-2.5-0.7h-53.9v-1.3c1.2-0.3,2.1-0.7,2.6-1.2c0.5-0.5,0.8-1.3,0.8-2.3V456c0-1-0.2-1.7-0.7-2.2
			c-0.5-0.5-1.3-0.9-2.6-1.3v-1.3h52.3c1.1,0,1.9-0.2,2.5-0.7s1-1.2,1.4-2.4h1.4v15.6h-1.4c-0.3-1.1-0.8-1.9-1.4-2.4
			c-0.6-0.4-1.4-0.6-2.5-0.6h-35.2v11.6h21.8c1.1,0,1.9-0.2,2.5-0.7c0.6-0.4,1-1.2,1.4-2.4h1.4v15.2H154c-0.3-1.1-0.8-1.9-1.4-2.3
			s-1.4-0.7-2.5-0.7H128.3z"/>
		<path class="st5" d="M222.9,490.7h-26.6l-3,5.7c-0.7,1.4-1.1,2.5-1.1,3.2c0,1.5,1.1,2.5,3.3,2.9v1.3h-21.3v-1.3
			c1.3-0.2,2.3-0.5,2.9-1.1c0.6-0.5,1.4-1.6,2.2-3.1l21.1-38.9c0.8-1.5,1.2-2.8,1.2-3.9c0-1.3-1-2.3-2.9-3v-1.3h22.5v1.3
			c-1.9,0.7-2.8,1.8-2.8,3.2c0,1,0.4,2.3,1.3,3.8l21.9,37.7c1.2,2.1,2.2,3.4,2.8,4c0.7,0.6,1.7,1,3.2,1.3v1.3H224v-1.3
			c2.2-0.3,3.4-1.3,3.4-2.9c0-1-0.4-2.2-1.3-3.6L222.9,490.7z M218.7,483.3l-9.5-16.9l-9,16.9H218.7z"/>
		<path class="st5" d="M322.2,481.8l9.8,13.4l-1.3,0.8c-1-0.8-1.8-1.2-2.4-1.2c-0.6,0-2.4,0.8-5.2,2.3c-5.9,3.1-10.9,5.2-15,6.3
			c-4.1,1.1-8.9,1.6-14.5,1.6c-11.1,0-20.3-2.4-27.4-7.2c-4.2-2.8-7.5-6.3-9.9-10.4c-2.8-4.7-4.2-9.9-4.2-15.7
			c0-7.8,2.5-14.5,7.5-20.3c7.5-8.6,18.9-12.9,34.1-12.9c5.6,0,10.4,0.5,14.4,1.6c4,1.1,9,3.2,15,6.3c2.9,1.5,4.6,2.2,5.2,2.2
			c0.6,0,1.4-0.4,2.4-1.2l1.3,0.8l-9.8,13.4l-1.4-0.8c0.1-0.5,0.1-0.9,0.1-1.3c0-0.9-0.4-1.8-1.3-2.6c-0.9-0.8-2.4-1.8-4.6-2.9
			c-6.1-3.1-12.6-4.7-19.4-4.7c-8.1,0-14.5,1.8-19.3,5.5c-5.7,4.3-8.5,9.9-8.5,16.8c0,6.9,2.8,12.5,8.5,16.8
			c4.8,3.7,11.2,5.5,19.3,5.5c6.8,0,13.3-1.6,19.4-4.7c2.2-1.1,3.7-2.1,4.6-2.9c0.9-0.8,1.3-1.7,1.3-2.6c0-0.3,0-0.8-0.1-1.2
			L322.2,481.8z"/>
		<path class="st5" d="M358.5,494.3h32.4c1.1,0,1.9-0.2,2.5-0.6s1-1.2,1.4-2.4h1.4v15.6h-1.4c-0.3-1.1-0.8-1.9-1.4-2.4
			c-0.6-0.4-1.4-0.7-2.5-0.7h-49.6v-1.3c1.2-0.3,2.1-0.7,2.6-1.2c0.5-0.5,0.8-1.3,0.8-2.3V456c0-1-0.2-1.7-0.7-2.2
			c-0.5-0.5-1.3-0.9-2.6-1.3v-1.3h20.5v1.3c-1.2,0.3-2.1,0.7-2.6,1.2c-0.5,0.5-0.7,1.3-0.7,2.2V494.3z"/>
		<path class="st5" d="M434.8,450.1c9.2,0,16.9,2.1,23,6.4c7.3,5.1,11,12.3,11,21.5c0,8.6-3.7,15.5-11,20.6
			c-6.1,4.3-13.7,6.4-22.9,6.4c-9.2,0-16.9-2.1-22.9-6.4c-7.4-5.1-11.1-12.2-11.1-21.1c0-9,3.7-16,11.1-21.1
			C418,452.3,425.6,450.2,434.8,450.1z M434.8,460.1c-6,0-10.8,1.7-14.6,5.2c-3.5,3.3-5.2,7.3-5.2,12.3c0,4.9,1.7,9,5.2,12.2
			c3.8,3.5,8.6,5.3,14.7,5.3c6,0,10.8-1.8,14.6-5.3c3.5-3.2,5.2-7.2,5.2-12c0-5.2-1.7-9.3-5.2-12.5
			C445.7,461.9,440.8,460.1,434.8,460.1z"/>
		<path class="st5" d="M538.4,456v27.9c0,6.4-1.4,11-4.1,14c-4.4,4.7-12.8,7.1-25.1,7.1c-8.2,0-14.9-1.1-20-3.4
			c-3.7-1.7-6.2-4-7.5-7.1c-1.2-2.8-1.9-6.3-1.9-10.6V456c0-1-0.2-1.7-0.7-2.2c-0.5-0.5-1.3-0.9-2.6-1.3v-1.3H497v1.3
			c-1.3,0.3-2.1,0.7-2.6,1.2c-0.5,0.5-0.7,1.3-0.7,2.2v25.3c0,2.9,0.3,5.2,0.9,6.8c0.6,1.6,1.6,2.9,3,3.9c2.8,2,6.9,3.1,12.3,3.1
			c5.3,0,9.4-1,12.3-3.1c1.4-1,2.3-2.3,2.9-3.9c0.6-1.6,0.8-3.8,0.8-6.8V456c0-1-0.2-1.7-0.7-2.2c-0.5-0.5-1.3-0.9-2.6-1.3v-1.3
			h19.3v1.3c-1.2,0.3-2.1,0.7-2.6,1.2C538.6,454.3,538.4,455.1,538.4,456z"/>
		<path class="st5" d="M554.1,499.1V456c0-1-0.2-1.7-0.7-2.2c-0.5-0.5-1.3-0.9-2.6-1.3v-1.3h34c7.1,0,12.6,0.8,16.7,2.4
			c5.7,2.3,9.8,6,12.4,11.2c1.8,3.6,2.6,7.9,2.6,12.7c0,9-2.9,15.8-8.8,20.4c-2.7,2.1-5.8,3.6-9.4,4.5c-3.6,0.9-8.1,1.4-13.5,1.4
			h-34v-1.3c1.2-0.3,2.1-0.7,2.6-1.2C553.8,500.8,554.1,500.1,554.1,499.1z M567.9,494.3h14.8c6.8,0,11.7-1.4,14.8-4.2
			c3.2-2.9,4.8-7.1,4.8-12.6s-1.6-9.6-4.8-12.6c-1.6-1.5-3.6-2.5-5.9-3.2c-2.3-0.7-5.3-1-8.9-1h-14.8V494.3z"/>
	</g>
</g>
</svg>
